<svg xmlns="http://www.w3.org/2000/svg" viewBox="0 0 288 480">
  <path fill="#000" d="M138.657303,28.517735 C146.050125,22.916147 152.092194,23.738714 158.558838,30.729765 C185.689545,60.060654 212.861816,89.353088 240.010941,118.666939 C247.025681,126.241005 254.003220,133.849503 261.015717,141.425644 C263.277466,143.869171 264.347839,146.728302 264.316040,150.045334 C264.145264,167.847733 262.599823,185.576996 261.515686,203.331177 C261.079987,210.466568 260.882904,217.609711 260.411743,224.750656 C258.474457,254.112854 256.946472,283.502258 255.302246,312.883575 C254.177414,332.983215 252.869858,353.077515 252.156357,373.192383 C251.932175,379.512695 250.024887,384.291534 245.460449,388.578369 C221.547668,411.036743 197.783157,433.652893 173.947144,456.193115 C167.655197,462.143005 161.309692,468.036621 154.956757,473.921509 C149.818848,478.680908 145.328018,478.874847 140.033768,474.051758 C122.796875,458.348785 105.697311,442.495178 88.520966,426.725647 C76.132774,415.352081 64.101189,403.542450 51.154858,392.841614 C42.876194,385.998840 39.923889,377.834717 39.787407,367.711090 C39.616905,355.063812 39.064960,342.421844 38.688187,329.777252 C37.994343,306.491821 37.655338,283.189484 36.538605,259.924438 C34.799309,223.689362 33.507641,187.444916 32.602081,151.181580 C32.453022,145.212448 34.657768,140.771973 38.639645,136.508789 C56.932762,116.923302 74.999825,97.126892 93.193771,77.448479 C108.225090,61.190731 123.320442,44.992184 138.657303,28.517735 M123.305115,396.509918 C123.342659,405.675079 123.328262,414.840942 123.452522,424.004944 C123.485558,426.441223 123.364059,428.934631 125.599899,430.878479 C131.883911,436.341736 138.051086,441.940247 144.223831,447.530182 C146.541229,449.628754 148.457947,450.025452 151.034576,447.551544 C157.397552,441.442169 164.025833,435.607635 170.593811,429.714233 C172.205429,428.268188 172.864166,426.566467 172.953659,424.442108 C173.808701,404.145569 174.819107,383.855072 175.571121,363.554901 C176.421722,340.593536 176.713409,317.605835 177.946136,294.667053 C178.437973,285.514709 178.455307,276.368744 178.854370,267.225616 C179.870178,243.952377 180.663437,220.669342 181.704956,197.397339 C181.892151,193.214661 180.347534,191.912552 176.282562,191.878860 C159.457870,191.739471 142.635498,191.330048 125.811913,191.041214 C119.228630,190.928177 119.126640,190.995712 119.255745,197.713760 C119.873291,229.848389 120.638687,261.980591 121.137222,294.117004 C121.661629,327.921295 122.048683,361.727173 123.305115,396.509918 M81.548332,391.942200 C88.295135,397.972382 95.041939,404.002563 101.945496,410.172852 C103.128639,407.945007 102.674408,406.264069 102.686584,404.648956 C102.764381,394.326111 102.133926,384.014221 101.949326,373.706024 C101.388947,342.414276 100.491432,311.129791 99.957047,279.840942 C99.459518,250.710297 98.134384,221.587677 98.618324,192.440674 C98.656891,190.118073 98.405701,187.790741 98.292107,185.465485 C98.152596,182.609802 96.660667,181.186417 93.914055,180.222931 C82.612946,176.258667 71.406677,172.024277 60.158310,167.908997 C58.468987,167.290939 56.784946,166.455109 54.902901,167.131531 C53.921124,168.714096 54.280960,170.427643 54.335133,172.048004 C55.341438,202.146698 56.165344,232.254501 57.573387,262.334839 C57.978287,270.984924 58.040489,279.634949 58.445686,288.277100 C59.723221,315.524994 61.116035,342.767914 62.251705,370.021606 C62.398163,373.536316 63.538422,375.946503 66.119240,378.152649 C71.181297,382.479919 76.064453,387.016479 81.548332,391.942200 M233.705444,314.538422 C236.143158,265.811005 238.580872,217.083603 241.074799,167.232880 C228.177795,173.064636 216.684570,178.257919 205.195541,183.460480 C203.318054,184.310638 203.385300,186.021118 203.308487,187.714554 C202.675308,201.674179 201.819412,215.626694 201.402664,229.592468 C200.668106,254.208496 199.310593,278.798370 198.429535,303.403442 C197.250656,336.325165 196.296371,369.251648 194.300613,402.138367 C194.230453,403.294769 193.564194,404.792725 195.441910,405.828888 C206.396622,395.951477 217.393326,386.040375 228.383392,376.121887 C229.789612,374.852753 230.644791,373.363312 230.746399,371.361023 C231.691269,352.742096 232.696259,334.126221 233.705444,314.538422 M174.489899,169.893845 C183.088364,171.002136 190.902008,168.838257 198.217865,164.360245 C200.049911,163.238861 202.130844,162.529327 204.076340,161.587082 C213.470139,157.037445 222.856766,152.472992 233.075958,147.510742 C207.542313,117.945435 181.069122,90.266533 154.799637,60.771126 C142.849930,97.633858 131.271439,133.351471 119.425697,169.893524 C138.260559,169.893524 155.876907,169.893524 174.489899,169.893845 M74.234901,151.160446 C83.109688,154.361465 91.871796,157.904724 101.386978,160.508621 C111.711998,131.217224 120.291267,101.782471 128.541168,71.983711 C105.551384,96.154175 82.561592,120.324646 59.214722,144.870529 C64.084526,147.830917 68.921501,149.075516 74.234901,151.160446 z"/>
</svg>
